<?xml version="1.0" encoding="iso-8859-1"?>
<!-- Generator: Adobe Illustrator 19.0.0, SVG Export Plug-In . SVG Version: 6.00 Build 0)  -->
<svg version="1.1" id="Capa_1" xmlns="http://www.w3.org/2000/svg" xmlns:xlink="http://www.w3.org/1999/xlink" x="0px" y="0px"
	 viewBox="0 0 480 480" style="enable-background:new 0 0 480 480;" xml:space="preserve">
<linearGradient id="SVGID_1_" gradientUnits="userSpaceOnUse" x1="-50.0975" y1="557.495" x2="-50.0975" y2="619.371" gradientTransform="matrix(8 0 0 -8 640.7803 4941)">
	<stop  offset="0" style="stop-color:#006DF0"/>
	<stop  offset="1" style="stop-color:#00E7F0"/>
</linearGradient>
<path style="fill:url(#SVGID_1_);" d="M442.156,136.904c-9.777-9.807-22.864-15.607-36.696-16.264V24c0-13.255-10.745-24-24-24h-248
	c-0.168,0-0.328,0.08-0.496,0.096c-0.636,0.041-1.265,0.159-1.872,0.352c-0.271,0.067-0.538,0.15-0.8,0.248
	c-0.839,0.343-1.613,0.827-2.288,1.432l-104,96c-0.712,0.686-1.287,1.5-1.696,2.4c-0.118,0.26-0.22,0.527-0.304,0.8
	c-0.262,0.715-0.418,1.464-0.464,2.224c0,0.168-0.104,0.32-0.104,0.488V456c0,13.255,10.745,24,24,24l0,0H381.46
	c13.255,0,24-10.745,24-24V252.8l36.672-36.672c21.886-21.853,21.913-57.31,0.06-79.196c-0.02-0.02-0.04-0.04-0.06-0.06
	L442.156,136.904z M125.46,26.272V88c0,4.418-3.582,8-8,8H49.924L125.46,26.272z M389.46,268.8V456c0,4.418-3.582,8-8,8h-336
	c-4.418,0-8-3.582-8-8V112h80c13.255,0,24-10.745,24-24V16h240c4.418,0,8,3.582,8,8v98.064c-0.704,0.168-1.432,0.36-2.176,0.56
	c-9.185,2.621-17.55,7.542-24.304,14.296L159.324,340.584c-0.25,0.281-0.482,0.578-0.696,0.888
	c-0.064,0.096-0.144,0.168-0.208,0.264c-0.654,0.961-1.091,2.053-1.28,3.2c0,0.048-0.048,0.08-0.056,0.136l-0.072,0.504
	l-11.2,78.656c-0.627,4.373,2.409,8.427,6.783,9.055c0.377,0.054,0.757,0.081,1.137,0.081c0.38,0.001,0.76-0.026,1.136-0.08
	l79.2-11.312c0.144,0,0.256-0.128,0.392-0.16c0.449-0.079,0.891-0.197,1.32-0.352c0.168-0.064,0.32-0.152,0.48-0.224
	c0.374-0.161,0.736-0.35,1.08-0.568c0.16-0.104,0.296-0.232,0.448-0.352c0.28-0.196,0.547-0.41,0.8-0.64L389.46,268.8z
	 M220.772,407.76l-44.448,6.344l5.648-5.648c3.07-3.178,2.982-8.242-0.196-11.312c-3.1-2.994-8.015-2.994-11.116,0l-5.648,5.648
	l6.344-44.416l32.936,16.464l12.496,24.944L220.772,407.76z M227.476,385.36l-7.48-14.96l97.744-97.712
	c3.178-3.07,3.266-8.134,0.196-11.312c-3.07-3.178-8.134-3.266-11.312-0.196c-0.066,0.064-0.132,0.13-0.196,0.196L208.66,359.12
	L178.516,344l156.216-156.2l56.536,56.6L235.06,400.576L227.476,385.36z M402.58,233.08l-56.512-56.592l11.304-11.264l56.536,56.536
	L402.58,233.08z M430.844,204.8l-5.6,5.6l-56.584-56.504l5.6-5.68c4.793-4.8,10.729-8.301,17.248-10.176
	c2.209-0.635,4.472-1.066,6.76-1.288c21.964-2.367,41.689,13.52,44.055,35.484C443.62,184.268,439.4,196.241,430.844,204.8
	L430.844,204.8z"/>
<g>
	
		<linearGradient id="SVGID_2_" gradientUnits="userSpaceOnUse" x1="-37.5573" y1="557.495" x2="-37.5573" y2="619.371" gradientTransform="matrix(8 0 0 -8 640.7803 4941)">
		<stop  offset="0" style="stop-color:#006DF0"/>
		<stop  offset="1" style="stop-color:#00E7F0"/>
	</linearGradient>
	<path style="fill:url(#SVGID_2_);" d="M351.684,227.432c-3.124-3.123-8.188-3.123-11.312,0l-11.312,11.312
		c-3.178,3.07-3.266,8.134-0.196,11.312c3.07,3.178,8.134,3.266,11.312,0.196c0.067-0.064,0.132-0.13,0.196-0.196l11.312-11.312
		C354.807,235.62,354.807,230.556,351.684,227.432z"/>
	
		<linearGradient id="SVGID_3_" gradientUnits="userSpaceOnUse" x1="-58.915" y1="557.495" x2="-58.915" y2="619.371" gradientTransform="matrix(8 0 0 -8 640.7803 4941)">
		<stop  offset="0" style="stop-color:#006DF0"/>
		<stop  offset="1" style="stop-color:#00E7F0"/>
	</linearGradient>
	<path style="fill:url(#SVGID_3_);" d="M85.46,224h168c4.418,0,8-3.582,8-8s-3.582-8-8-8h-168c-4.418,0-8,3.582-8,8
		S81.042,224,85.46,224z"/>
	
		<linearGradient id="SVGID_4_" gradientUnits="userSpaceOnUse" x1="-61.915" y1="557.495" x2="-61.915" y2="619.371" gradientTransform="matrix(8 0 0 -8 640.7803 4941)">
		<stop  offset="0" style="stop-color:#006DF0"/>
		<stop  offset="1" style="stop-color:#00E7F0"/>
	</linearGradient>
	<path style="fill:url(#SVGID_4_);" d="M85.46,272h120c4.418,0,8-3.582,8-8s-3.582-8-8-8h-120c-4.418,0-8,3.582-8,8
		S81.042,272,85.46,272z"/>
	
		<linearGradient id="SVGID_5_" gradientUnits="userSpaceOnUse" x1="-64.915" y1="557.495" x2="-64.915" y2="619.371" gradientTransform="matrix(8 0 0 -8 640.7803 4941)">
		<stop  offset="0" style="stop-color:#006DF0"/>
		<stop  offset="1" style="stop-color:#00E7F0"/>
	</linearGradient>
	<path style="fill:url(#SVGID_5_);" d="M165.46,312c0-4.418-3.582-8-8-8h-72c-4.418,0-8,3.582-8,8s3.582,8,8,8h72
		C161.878,320,165.46,316.418,165.46,312z"/>
	
		<linearGradient id="SVGID_6_" gradientUnits="userSpaceOnUse" x1="-51.915" y1="557.495" x2="-51.915" y2="619.371" gradientTransform="matrix(8 0 0 -8 640.7803 4941)">
		<stop  offset="0" style="stop-color:#006DF0"/>
		<stop  offset="1" style="stop-color:#00E7F0"/>
	</linearGradient>
	<path style="fill:url(#SVGID_6_);" d="M149.46,176h152c4.418,0,8-3.582,8-8s-3.582-8-8-8h-152c-4.418,0-8,3.582-8,8
		S145.042,176,149.46,176z"/>
	
		<linearGradient id="SVGID_7_" gradientUnits="userSpaceOnUse" x1="-67.415" y1="557.495" x2="-67.415" y2="619.371" gradientTransform="matrix(8 0 0 -8 640.7803 4941)">
		<stop  offset="0" style="stop-color:#006DF0"/>
		<stop  offset="1" style="stop-color:#00E7F0"/>
	</linearGradient>
	<path style="fill:url(#SVGID_7_);" d="M85.46,176h32c4.418,0,8-3.582,8-8s-3.582-8-8-8h-32c-4.418,0-8,3.582-8,8
		S81.042,176,85.46,176z"/>
</g>
<g>
</g>
<g>
</g>
<g>
</g>
<g>
</g>
<g>
</g>
<g>
</g>
<g>
</g>
<g>
</g>
<g>
</g>
<g>
</g>
<g>
</g>
<g>
</g>
<g>
</g>
<g>
</g>
<g>
</g>
</svg>
